<?xml version="1.0" encoding="utf-8"?>
<svg xmlns="http://www.w3.org/2000/svg" xmlns:xlink="http://www.w3.org/1999/xlink" version= "1.1" width="720px" height="1424px" viewBox="0 0 720 1424">
<g id="layer1">
<g style="fill:rgb(0,211,255); fill-opacity:1.0; stroke-linejoin: miter">
<path d="M478.67072,667.6737L480.28363,684.30396Q480.36182,695.6384,478.78104,706.2376Q479.02747,711.9968,470.30618,736.3799Q462.1679,755.3716,447.394,771.4213Q439.94745,779.4505,431.5378,785.8427Q409.6711,800.3909,404.14203,801.3362Q384.43344,809.20966,360.87256,810.5355Q338.2034,810.69183,318.47623,804.21246Q308.61264,800.9728,299.48456,796.0742Q277.30792,782.3762,273.75525,777.646Q237.39856,741.49493,235.09163,696.4077Q233.65045,674.0066,239.27359,653.94916Q242.08513,643.9204,246.66275,634.47754Q247.92813,629.2778,264.20853,607.6918Q291.82956,575.2309,337.4216,566.50574Q360.40866,563.2985,381.05206,567.1556Q406.34366,573.5222,410.6989,576.9148Q420.14175,581.49243,428.9987,587.83606Q437.85565,594.1798,445.22913,601.64667Q462.36472,621.2966,464.01166,626.5744Q474.30817,644.8777,478.67072,667.6737"/>
</g>
<g style="fill:rgb(0,211,255); fill-opacity:1.0; stroke-linejoin: miter">
<path d="M485.35403,1157.6068Q489.2065,1177.1886,483.91196,1204.9686Q478.08423,1231.4716,460.31586,1254.0757Q441.83487,1277.068,416.32666,1289.1274Q393.15005,1299.1509,367.55585,1300.4684Q331.28305,1300.1569,306.16788,1286.0071Q286.45535,1273.831,281.45798,1268.7406Q263.77036,1250.9307,254.84738,1233.6794Q245.41473,1215.847,242.70798,1196.2496Q240.4356,1173.7888,242.35397,1162.1738Q245.12367,1140.708,253.81265,1123.0527Q256.4204,1116.8121,270.89185,1097.6246Q277.02985,1090.411,284.0553,1084.3698L291.30267,1078.6213Q306.24103,1067.7107,324.72928,1061.4886Q357.00272,1049.541,397.94217,1059.7714Q426.39294,1066.8558,451.91248,1091.5793Q477.1865,1116.6674,485.354,1157.6068"/>
</g>
<g style="fill:rgb(0,211,255); fill-opacity:1.0; stroke-linejoin: miter">
<path d="M893.0416,877.5257L893.7848,881.97845Q896.2549,908.2032,890.15704,930.72894Q881.89685,956.43774,871.8045,968.9234Q856.39954,990.1811,835.00415,1003.14667Q813.66736,1015.2984,792.0376,1018.54175Q769.4303,1023.13873,738.38403,1015.77026Q720.3368,1011.66296,699.2399,996.50256Q658.7071,964.0843,651.08014,920.5019Q647.4232,890.1836,650.7302,877.3697Q654.28467,854.21216,666.16174,834.86707Q691.3054,791.0508,747.18854,777.19275Q798.5533,768.2972,842.26135,796.9759Q881.4459,822.71924,893.0416,877.5257"/>
</g>
<g style="fill:rgb(0,211,255); fill-opacity:1.0; stroke-linejoin: miter">
<path d="M889.6998,1342.3768L890.44305,1346.8295Q895.92645,1398.5472,864.9654,1438.3959Q850.68054,1456.4728,831.66235,1467.9976Q808.11365,1481.3679,783.56775,1484.2665Q764.66296,1487.6954,730.9941,1479.5719Q714.6509,1474.8293,695.89813,1461.3536Q677.8835,1446.9454,666.36884,1430.332Q660.6116,1422.0253,656.4792,1413.1672Q653.3974,1409.0829,647.73846,1385.353Q643.3563,1346.6819,649.3792,1332.1168Q652.57025,1314.843,668.787,1290.3511Q694.1729,1254.362,743.8468,1242.0438Q766.6756,1238.0902,787.9919,1241.5586Q793.5573,1241.2661,819.11566,1250.9363Q829.20667,1255.4539,838.91956,1261.8269Q844.1249,1263.7903,861.9772,1282.2185Q868.64124,1290.092,873.9429,1299.4009Q884.54614,1318.0184,889.6998,1342.3768"/>
</g>
<g style="fill:rgb(0,211,255); fill-opacity:1.0; stroke-linejoin: miter">
<path d="M1297.5447,933.64594L1298.2878,938.09863Q1300.725,961.0845,1295.963,981.7256Q1293.582,992.0462,1289.4014,1001.78064Q1277.3751,1025.604,1272.8102,1029.6654Q1244.1818,1066.3202,1196.8549,1074.7625Q1171.8871,1078.9706,1146.1384,1072.5039Q1128.3418,1069.4117,1107.8804,1055.5099Q1064.1766,1023.43115,1055.583,976.6221Q1052.1643,940.183,1055.0608,931.0496Q1059.4202,906.8763,1076.6318,881.62024Q1082.2731,873.6227,1089.1138,866.79407Q1095.9545,859.96545,1103.9945,854.3057L1112.3345,848.9383Q1129.6143,838.78784,1151.6914,833.31305Q1177.6855,829.1704,1199.2975,833.18994Q1229.421,840.42535,1249.7024,854.78186Q1287.5619,883.02435,1297.5447,933.64594"/>
</g>
<g style="fill:rgb(0,211,255); fill-opacity:1.0; stroke-linejoin: miter">
<path d="M893.04175,522.19867L894.65466,538.8289Q895.00635,589.8345,861.7651,625.9463Q828.25574,662.0775,775.2437,665.0607Q724.238,665.41235,688.12634,632.1711Q676.53784,621.412,667.9506,607.8848L660.2821,593.78595Q653.4479,579.05536,650.6248,562.27985Q643.40857,510.55902,671.95514,470.70282Q700.50165,430.84653,751.79266,421.03073Q803.5136,413.81454,843.3698,442.36115Q883.2261,470.90768,893.04175,522.19867"/>
</g>
<g style="fill:rgb(0,0,0); fill-opacity:1.0; stroke-linejoin: miter">
<path d="M327.81763,745.3965L327.0525,745.3952Q317.21387,745.8395,312.19827,739.3559Q305.58063,731.01904,301.3359,713.49945Q296.60794,691.7043,296.82764,680.6665Q297.14896,656.362,301.31525,647.9739Q310.6215,624.69446,330.3898,612.33716Q353.68527,598.00574,373.4048,598.2502Q392.537,598.794,405.45642,608.56946Q415.06668,615.4513,423.07278,626.10504Q427.02322,631.3703,430.2562,637.20905L433.25723,643.12994Q438.95343,655.31976,440.094,667.8352L440.24774,673.9594Q440.02646,680.0178,438.4712,685.8123Q435.23932,697.37714,428.12717,708.17426Q417.15573,724.3102,402.9102,739.79785L402.39636,714.022Q430.37006,722.1313,438.69287,731.38403Q447.55707,739.78345,452.55872,754.27045Q456.44333,763.06116,462.88477,797.6483Q435.63535,792.00836,423.95892,787.3422Q408.28964,780.5095,405.7653,775.72565Q403.45016,772.81616,402.24783,769.4141Q401.10287,767.95355,400.63882,758.32324Q400.6552,748.48035,406.9166,728.00366L327.81763,745.3965"/>
</g>
<g style="fill:rgb(46,0,255); fill-opacity:1.0; stroke-linejoin: miter">
<path d="M329.5126,759.383L319.03653,759.8204L309.3229,760.76886L304.3094,761.6142Q304.3083,761.6148,304.30725,761.6155L304.3046,761.6164L300.49564,762.2572Q292.1316,764.0228,285.31183,766.71326Q283.3569,767.5067,281.49286,768.35455C281.49335,768.3551,281.49384,768.3556,281.49432,768.3561L281.49188,768.357Q270.49597,773.3575,262.66483,780.2495Q256.76813,785.4386,251.63904,791.08777C255.2065,794.93475,258.96222,798.57025,262.88858,801.9851L374.40894,801.76434L300.2749,800.7885L299.35684,797.76196Q295.9678,787.7533,295.38812,780.50824L295.3907,780.50916C306.4728,788.5694,319.12558,794.33417,333.87744,798.1749C342.33813,800.3609,350.98694,801.42773,359.62717,801.42773C379.90607,801.42773,400.13794,795.5514,417.7799,784.47644Q420.5625,785.8612,423.95892,787.3422Q424.71136,787.6429,425.52847,787.94763L424.86472,779.9721Q424.85178,779.819,424.83676,779.66724C428.06857,777.27686,431.19653,774.6991,434.19885,771.9387Q416.0409,767.6599,410.42404,766.89777Q399.39362,764.89984,387.59274,763.3041Q363.66318,760.0234,340.58728,759.41144L329.5126,759.383 Z"/>
</g>
<g style="fill:rgb(46,0,255); fill-opacity:1.0; stroke-linejoin: miter">
<path d="M425.52866,787.94916L426.66995,801.66156L457.89197,801.6L461.87857,797.4402Q462.3811,797.5441,462.88477,797.6483Q462.7865,797.1207,462.68884,796.5991L461.87927,797.43945Q437.16043,792.285,425.53253,787.94916 Z"/>
</g>
<g style="fill:rgb(46,0,255); fill-opacity:1.0; stroke-linejoin: miter">
<path d="M459.25598,779.2459L459.25598,779.2469Q460.8688,786.87915,462.68814,796.59546L463.5119,795.7359C466.82376,792.2495,470.22296,788.58875,472.98965,785.45154Q472.44415,785.1567,471.89078,784.87335Q463.85983,781.05023,459.2602,779.2459 Z"/>
</g>
<g style="fill:rgb(207,128,87); fill-opacity:1.0; stroke-linejoin: miter">
<path d="M300.2749,800.7885L299.35684,797.76196Q292.54068,777.63214,297.08856,768.6813Q300.47104,760.36957,325.4432,753.5405Q319.43738,734.07245,318.6385,720.6974Q314.39694,724.63654,312.29694,722.1366Q308.96567,718.6021,307.95062,709.77655Q307.98862,703.4303,313.7824,699.6764Q316.02734,664.0647,318.98782,654.0718Q321.64633,643.29156,326.43842,638.10144Q333.44174,629.84784,355.49948,624.6877Q365.94495,621.64966,381.9455,627.05676Q385.53873,628.3064,389.11484,629.6778Q395.37366,636.15125,401.18796,642.8774Q413.8883,658.2286,416.96844,669.0195Q422.4817,684.2179,418.53943,711.3214Q413.36884,741.72455,401.9142,763.2818Q421.864,768.3679,422.93594,773.2546Q424.54584,776.1917,424.86472,779.9721L426.73587,802.4533L300.2749,800.7885"/>
</g>
<g style="fill:rgb(30,13,1); fill-opacity:0.11764706; stroke-linejoin: miter">
<path d="M327.09863,752.18396L329.97223,755.12256Q334.5619,760.105,343.79852,768.6504Q348.96075,773.2914,353.53418,776.70013Q354.14957,777.31995,357.60016,779.2987Q359.00214,780.0246,360.46628,780.56415Q363.39456,781.64325,366.57162,781.9755Q368.9773,782.1141,371.99536,781.2449Q374.08667,780.87646,380.4973,777.4977L399.7935,762.75146L365.90192,797.6276L327.09863,752.18396"/>
</g>
<g style="fill:rgb(255,0,18); fill-opacity:1.0; stroke-linejoin: miter">
<path d="M350.58234,748.62915L351.42767,748.16705Q356.9938,744.9722,360.0666,744.8593Q361.32733,744.74365,363.24118,745.61426Q364.64142,746.29126,366.8934,748.2327Q371.6352,746.0607,373.85587,745.9006Q376.48715,745.5326,379.42148,746.52606Q382.70786,747.6122,388.2443,750.84064Q383.91412,754.8373,380.30814,756.93396Q372.2368,761.43994,364.2639,759.11365Q362.2994,758.5393,360.50873,757.6679Q359.07587,757.06323,356.5149,755.20337Q353.43567,752.75146,350.58234,748.62915"/>
</g>
<g style="fill:rgb(255,0,18); fill-opacity:1.0; stroke-linejoin: miter">
<path d="M379.45737,749.7864L379.45737,749.7879L379.4573,749.7864L379.45737,749.7864"/>
</g>
<g style="fill:rgb(0,0,0); fill-opacity:0.11372549; stroke-linejoin: miter">
<path d="M355.28543,725.17957L362.828,729.21545L370.3706,733.2514Q377.8554,729.0431,385.34024,724.83466Q377.80505,726.7741,370.2698,728.7132Q362.77765,726.94635,355.28543,725.17957"/>
</g>
<g style="fill:rgb(46,0,255); fill-opacity:1.0; stroke-linejoin: miter">
<path d="M399.78622,806.8873L399.78616,806.8876L399.786,806.8876L399.78622,806.8873"/>
</g>
<g style="fill:rgb(255,255,255); fill-opacity:1.0; stroke-linejoin: miter">
<path d="M383.29898,694.7827L384.29706,694.5361Q388.7884,693.4211,391.28436,693.10223Q392.28275,692.9647,393.2812,692.8897L394.2798,692.8331L395.27853,692.815L396.27734,692.8368L397.27615,692.8969Q398.27512,692.9756,399.27423,693.11707Q401.2724,693.406,403.27103,693.8611Q405.26965,694.3159,407.2684,694.82635L406.3397,695.05646Q403.56137,695.7728,400.71292,696.2569Q399.76077,696.4097,398.79312,696.51056L397.82056,696.59546Q396.84357,696.66565,395.84518,696.6651Q394.8461,696.66205,393.8256,696.588L392.80072,696.4995Q391.77097,696.39496,390.7256,696.2386Q388.11615,695.8607,383.29898,694.7827"/>
</g>
<g style="fill:rgb(0,0,0); fill-opacity:1.0; stroke-linejoin: miter">
<path d="M391.4022,696.6113L391.32452,696.4342Q390.7899,695.2688,390.7442,694.6147Q390.6804,694.022,391.19046,693.1371Q393.88434,692.55994,395.54483,692.6285Q396.13892,692.6216,397.70728,692.8132Q398.83658,692.9602,400.98547,693.3565Q401.4093,694.4574,401.27948,694.9985Q401.21063,695.5412,400.38937,696.6079L396.6714,696.81946L391.4022,696.6113"/>
</g>
<g style="fill:rgb(255,255,255); fill-opacity:1.0; stroke-linejoin: miter">
<path d="M328.20068,693.51074L329.19885,693.26447Q333.69012,692.14923,336.18607,691.8306Q337.18445,691.69305,338.18298,691.61774L339.18158,691.5613L340.1802,691.54297L341.179,691.56537L342.1779,691.6252Q343.17685,691.7043,344.1758,691.84503Q346.17407,692.1342,348.1727,692.5892Q350.17133,693.04425,352.1701,693.55444L351.24133,693.78455Q348.46304,694.5014,345.6146,694.9851Q344.66245,695.13776,343.69476,695.23883L342.72223,695.3235Q341.74527,695.394,340.74686,695.3931Q339.74783,695.39014,338.72733,695.3164L337.70245,695.2279Q336.6727,695.12335,335.62735,694.9669Q333.01785,694.58905,328.20068,693.51074"/>
</g>
<g style="fill:rgb(0,0,0); fill-opacity:1.0; stroke-linejoin: miter">
<path d="M336.30392,695.3397L336.22626,695.1626Q335.69165,693.99713,335.64594,693.34283Q335.58218,692.7503,336.0922,691.86487Q338.78604,691.28864,340.44656,691.357Q341.04056,691.3499,342.60904,691.54126Q343.73828,691.6882,345.8872,692.0851Q346.31094,693.1856,346.18115,693.72675Q346.1123,694.26953,345.29108,695.3364L341.57312,695.5474L336.30392,695.3397"/>
</g>
<g style="fill:rgb(0,0,0); fill-opacity:1.0; stroke-linejoin: miter">
<path d="M384.94592,671.81665L386.06647,671.5549Q389.4355,670.7339,392.73865,670.2333Q393.83725,670.07806,394.9213,669.99426L396.00064,669.93256L397.07092,669.9152L398.13113,669.9468L399.18066,670.0304L400.22003,670.1629L401.25027,670.33966Q402.27606,670.5387,403.2871,670.8091Q405.81848,671.4669,410.26212,673.1986Q406.19073,672.5048,403.7893,672.20905Q401.36856,671.9257,400.84198,671.8966Q399.83267,671.80963,398.77847,671.7517Q397.723,671.69446,396.62262,671.66614Q396.09436,671.6382,393.24084,671.63324Q390.36813,671.6409,384.94592,671.81665"/>
</g>
<g style="fill:rgb(0,0,0); fill-opacity:1.0; stroke-linejoin: miter">
<path d="M353.9994,671.99054L352.90332,671.64026Q349.00403,670.37537,346.11786,669.73615Q344.73468,669.4291,343.1308,669.2286L342.06537,669.12573L341.0061,669.07263L339.95328,669.07196L338.90656,669.12085Q337.45663,669.2196,335.79767,669.5198Q332.41577,670.1812,328.6538,671.3439Q335.935,670.66846,340.2164,670.8198Q341.33826,670.8488,342.72165,670.9238Q343.1155,670.9405,345.74573,671.14465Q347.7072,671.2905,353.9994,671.99054"/>
</g>
<g style="fill:rgb(0,0,0); fill-opacity:1.0; stroke-linejoin: miter">
<path d="M794.1762,612.65686Q786.83527,612.65686,767.2676,613.29083Q757.944,613.62415,740.2255,614.74646Q727.9139,615.5263,711.54913,616.6871Q710.60754,616.91223,709.69934,617.1305Q696.8279,620.223,690.63654,621.90924C690.63745,621.91016,690.6384,621.9111,690.6394,621.912L690.6329,621.9129Q689.64606,622.17896,688.83356,622.4107Q665.4948,628.96906,660.5503,634.719Q657.99316,636.72064,656.4777,640.2685C657.8985,641.92194,659.2834,643.4743,660.5769,644.84393L667.60803,652.4611L759.7049,652.88226L759.7045,652.8832C759.70483,652.88226,759.70514,652.8823,759.70544,652.8823L772.9583,652.9429L772.9575,652.9438L884.13336,653.4512Q872.07184,631.3641,854.28186,622.3355Q850.4434,620.5356,846.6883,619.1577C845.79535,620.0912,844.8884,621.0086,843.96814,621.9093L843.9648,621.9102C844.884,621.0086,845.7893,620.0912,846.6802,619.1577Q842.00836,617.4404,837.45776,616.3786L837.44977,616.3796Q834.5461,615.6993,831.6874,615.2882Q818.874,613.1826,802.58856,612.8028L802.58093,612.8038Q800.84735,612.7622,799.06647,612.7414Q799.0518,612.77216,799.0372,612.8028L799.0296,612.8038Q799.04425,612.77216,799.05884,612.7414Q799.0035,612.7406,798.94037,612.7399L798.9328,612.74084L798.77814,613.02216L798.93274,612.7399Q798.33765,612.73303,797.73035,612.7285Q796.64435,612.65686,794.1762,612.65686 Z M752.87006,626.5367L777.5223,651.8075L752.863,626.5367 Z M781.5972,652.1122L781.5964,652.11334L781.5816,652.11426C781.5844,652.1129,781.5871,652.1126,781.58984,652.1122 Z M774.60156,652.60144L774.8545,652.81976L774.8471,652.82074L774.60156,652.60144 Z"/>
</g>
<g style="fill:rgb(0,0,0); fill-opacity:1.0; stroke-linejoin: miter">
<path d="M835.5064,629.411Q835.5049,629.4154,835.50336,629.41974L835.4875,629.4207C835.49115,629.4169,835.49475,629.41394,835.4984,629.411 Z"/>
</g>
<g style="fill:rgb(87,71,71); fill-opacity:1.0; stroke-linejoin: miter">
<path d="M740.7482,652.39844L740.7482,652.39984Q727.2989,644.1446,717.6936,635.2328Q711.0002,627.5821,710.9713,625.82825Q709.561,622.55133,709.57446,619.03107Q709.59894,615.5044,711.28815,611.71173L713.3565,607.9063Q715.82245,604.0609,719.6427,600.3243Q723.4632,596.58734,728.40204,593.2259L733.5616,590.025Q738.9715,586.95123,745.14557,584.6535Q757.72314,579.93427,771.49756,579.88104Q777.91846,579.894,784.31805,580.8558L790.6471,582.01654Q796.9379,583.395,802.8155,585.49207Q808.6928,587.5891,813.8954,590.2503Q819.0979,592.912,823.364,595.9845L827.33057,599.12115Q831.0304,602.3411,833.40155,605.7412L835.5374,609.4558Q837.2417,613.20074,837.50684,617.0473Q838.4348,630.51086,822.6242,652.8894L740.7482,652.39844"/>
</g>
<g style="fill:rgb(0,0,0); fill-opacity:1.0; stroke-linejoin: miter">
<path d="M779.222,512.55536L780.0243,512.6093Q782.44904,512.99286,783.903,514.85516Q785.3556,516.72986,785.08124,519.2711Q784.6972,521.69586,782.83527,523.14984Q780.9602,524.6024,778.4195,524.32806Q775.99457,523.94403,774.54083,522.082Q773.08813,520.20734,773.3627,517.6661Q773.7463,515.2409,775.6085,513.7873Q776.21045,513.3216,776.9202,513.01984L777.6499,512.7665Q778.4032,512.5577,779.222,512.55536 M761.30756,465.23285L759.6135,465.25656Q748.9096,465.61282,742.6629,469.10403Q737.0601,471.412,732.53467,481.23956Q724.6857,483.49753,713.64606,489.98877Q707.9094,493.79413,705.0823,498.08865Q701.6739,504.01932,702.3246,512.25824Q702.8373,520.61957,708.275,538.26605L724.60345,567.8035L808.00793,579.3802Q823.86523,552.168,828.7687,535.10944Q831.15576,525.4664,831.2387,517.78534Q830.2838,509.23438,828.0285,504.2444Q809.24286,467.7335,761.30756,465.23285 Z"/>
</g>
<g style="fill:rgb(255,190,155); fill-opacity:1.0; stroke-linejoin: miter">
<path d="M779.222,512.55536L780.0243,512.6093Q782.44904,512.99286,783.903,514.85516Q785.3556,516.72986,785.08124,519.2711Q784.6972,521.69586,782.83527,523.14984Q780.9602,524.6024,778.4195,524.32806Q775.99457,523.94403,774.54083,522.082Q773.08813,520.20734,773.3627,517.6661Q773.7463,515.2409,775.6085,513.7873Q776.21045,513.3216,776.9202,513.01984L777.6499,512.7665Q778.4032,512.5577,779.222,512.55536 M765.901,499.9964L765.49146,499.99802Q740.6941,500.78195,730.0081,512.64056Q721.6469,522.3461,721.7186,554.6992Q715.348,553.38824,715.35236,559.00244Q715.37726,563.15045,718.455,571.516Q720.08606,576.0291,725.6104,587.0192Q727.33093,592.41736,729.31757,596.7443Q731.5596,601.58514,740.19684,614.435L741.2734,623.8322L778.5597,656.0182L801.522,626.56305L802.60297,612.5166Q807.2777,600.8629,811.81433,574.0437Q812.79504,569.3008,812.43585,561.5306Q809.0866,539.5401,793.33997,514.86456Q781.0829,498.38614,765.901,499.9964 Z"/>
</g>
<g style="fill:rgb(255,0,6); fill-opacity:0.08235294; stroke-linejoin: miter">
<path d="M742.0253,615.43024L743.56396,617.1621Q747.4288,621.68677,751.9329,625.77124Q755.1801,628.49146,758.79565,630.56244Q766.1923,634.3426,774.4584,633.4145Q783.88635,632.1416,789.30475,627.3186Q794.2741,623.2305,799.7806,611.193L777.5223,651.8075L742.0253,615.43024"/>
</g>
<g style="fill:rgb(255,0,6); fill-opacity:0.08235294; stroke-linejoin: miter">
<path d="M753.98724,601.481L755.0141,601.043Q761.85944,598.0362,765.0099,597.6958Q766.9478,597.56573,768.06616,597.99786Q769.2414,598.3207,771.2583,599.8434Q771.88104,598.8249,773.28235,597.6732Q774.3072,597.0952,774.5251,597.06433Q775.21643,596.892,775.92957,596.88525Q777.58344,596.8777,780.29364,597.80817Q783.31805,598.8469,789.1182,601.5375Q781.4477,604.4062,778.9151,604.91254Q776.5643,605.48724,774.53406,605.71405Q773.3975,605.8614,771.60876,605.88116Q771.3087,605.9216,769.398,605.7851Q768.6096,605.71106,767.7531,605.5806Q766.03973,605.3195,764.05255,604.8329Q758.7688,603.37915,753.98724,601.481"/>
</g>
<g style="fill:rgb(255,0,6); fill-opacity:0.09411765; stroke-linejoin: miter">
<path d="M761.54913,577.57886L773.3181,583.3224L781.98395,574.99054L772.75995,579.1847L761.54913,577.57886"/>
</g>
<g style="fill:rgb(0,0,0); fill-opacity:1.0; stroke-linejoin: miter">
<path d="M809.8944,551.26587L809.8944,551.26715C809.8944,558.745,801.48517,564.3971,791.7121,564.3971L791.7121,564.39886C781.93884,564.3971,773.5298,558.745,773.5298,551.26587L773.5298,551.26715C773.5298,543.7863,781.93884,538.1342,791.7121,538.1342L791.7121,538.1357C801.48517,538.1342,809.8944,543.7863,809.8944,551.26587L809.8944,551.26715 M808.3247,551.26587L808.3247,551.26715C808.3247,545.10724,801.1556,539.7044,791.7121,539.7044L791.7121,539.70557C782.2686,539.7044,775.09955,545.10724,775.09955,551.26587L775.09955,551.26715C775.09955,557.42426,782.2686,562.8275,791.7121,562.8275L791.7121,562.8288C801.1556,562.8275,808.3247,557.42426,808.3247,551.26587 Z"/>
</g>
<g style="fill:rgb(0,0,0); fill-opacity:1.0; stroke-linejoin: miter">
<path d="M764.3908,552.1742L764.3908,552.17535C764.3908,559.6533,755.9818,565.30566,746.2085,565.30566L746.2085,565.30707C736.4354,565.3057,728.02625,559.6534,728.02625,552.17426L728.02625,552.1754C728.02625,544.6949,736.4353,539.04254,746.2085,539.04254L746.2085,539.0439C755.9817,539.04254,764.3908,544.6949,764.3908,552.1742L764.3908,552.17535 M762.8211,552.1742L762.8211,552.17535C762.8211,546.01544,755.6521,540.6126,746.2085,540.6126L746.2085,540.6139C736.7651,540.6127,729.5961,546.01544,729.5961,552.17426L729.5961,552.1754C729.5961,558.33246,736.7651,563.73584,746.2085,563.7358L746.2085,563.73694C755.6521,563.7358,762.8211,558.3324,762.8211,552.1742 Z"/>
</g>
<g style="fill:rgb(0,0,0); fill-opacity:1.0; stroke-linejoin: miter">
<path d="M762.04126,546.2869L762.04126,546.2885L762.04126,546.2869L760.3394,544.9213C762.8119,543.57684,765.63904,542.0068,768.5946,542.01385L768.5946,542.0153C769.55756,542.0163,770.5016,542.18353,771.4163,542.4462L771.4163,542.4474C773.33984,542.99854,775.2508,544.0147,777.02374,544.9522C777.601,545.25775,777.8214,545.9733,777.51624,546.5505C777.21075,547.128,776.4952,547.3484,775.91785,547.04315L775.91785,547.0446C774.0931,546.07794,772.4066,545.1915,770.76324,544.7193L770.76324,544.7207C770.00494,544.5015,769.28296,544.38104,768.58905,544.3793L768.58905,544.38055C766.3557,544.37396,764.0903,545.5743,761.4697,546.9994C761.05084,547.2272,760.53625,547.18134,760.1644,546.8829C759.7926,546.5846,759.6363,546.0921,759.7679,545.6339L759.7679,545.6353L759.7679,545.6339C759.9483,545.0063,760.60345,544.6435,761.2311,544.82367C761.8589,545.0043,762.2216,545.6593,762.04126,546.2869 Z"/>
</g>
<g style="fill:rgb(0,0,0); fill-opacity:1.0; stroke-linejoin: miter">
<path d="M730.49243,548.4594L730.49243,548.4605L730.49255,548.4594C730.61694,548.87335,730.50525,549.3224,730.20166,549.6302C729.8977,549.9378,729.4502,550.0555,729.03436,549.93634L729.03436,549.9378L719.9154,547.32623C719.28754,547.1464,718.9242,546.49164,719.1039,545.86395C719.2837,545.236,719.93835,544.8726,720.5664,545.0522L720.5664,545.0537L729.6853,547.6623L728.22723,549.1396L728.22723,549.14105C728.0393,548.51385,728.3941,547.85443,729.0196,547.6667C729.64526,547.479,730.3046,547.8337,730.49243,548.4594 Z"/>
</g>
<g style="fill:rgb(255,190,155); fill-opacity:1.0; stroke-linejoin: miter">
<path d="M773.94934,508.75772L773.8455,508.75793Q773.42975,508.76144,773.0065,508.79147L771.3344,511.62808L770.0728,516.8212Q769.85474,518.61365,770.0682,520.3245Q770.2961,521.518,770.8779,522.58014Q771.16895,523.11127,771.54846,523.60956Q771.928,524.108,772.39594,524.5733L772.88617,525.0307Q773.3506,525.4163,773.8314,525.7164L774.3164,525.9948Q774.8055,526.25226,775.31116,526.42377Q776.3224,526.76654,777.3994,526.76654Q778.7677,526.8044,780.90533,526.0011Q782.7991,525.136,783.0153,524.8606Q783.61676,524.41656,784.0828,523.8871Q785.3993,522.1834,785.8127,520.54535Q786.2519,518.74536,786.0268,517.3759Q785.90015,516.69244,785.3675,515.78394L785.0757,515.3157Q784.75854,514.8333,784.34,514.29474Q783.2408,512.7581,780.8873,510.97305Q777.72504,508.75772,773.94934,508.75772"/>
</g>
<g style="fill:rgb(255,255,255); fill-opacity:1.0; stroke-linejoin: miter">
<path d="M781.8339,551.15466L782.3638,550.81696Q783.9406,549.7743,785.6307,549.0041Q786.19836,548.75745,786.7911,548.5717L787.3917,548.4046Q787.9993,548.25446,788.64166,548.1878Q790.37036,548.0369,792.3089,548.39087Q793.75397,548.61035,797.2626,549.5837Q794.7035,550.9543,793.2128,551.4934Q792.618,551.7144,792.0072,551.8835L791.3914,552.0361Q790.77106,552.1742,790.12854,552.24066Q789.48535,552.305,788.8199,552.2981L788.1499,552.27606Q787.4751,552.2382,786.78406,552.148Q785.06055,551.9364,781.8339,551.15466"/>
</g>
<g style="fill:rgb(0,0,0); fill-opacity:1.0; stroke-linejoin: miter">
<path d="M791.20416,550.77563L791.1167,551.0577Q790.77356,551.89044,789.9858,552.25116Q789.19354,552.6104,788.3106,552.2966Q787.47845,551.95355,787.1183,551.16504Q786.75977,550.3724,787.07367,549.48846Q787.417,548.6556,788.2049,548.2948Q788.9971,547.9357,789.87976,548.2498Q790.71204,548.5928,791.0721,549.3813Q791.1871,549.63544,791.2342,549.9146L791.26263,550.1964Q791.273,550.4831,791.20416,550.77563"/>
</g>
<g style="fill:rgb(255,255,255); fill-opacity:1.0; stroke-linejoin: miter">
<path d="M738.2435,552.4008L738.77325,552.0633Q740.35004,551.02075,742.0401,550.2504Q742.60767,550.004,743.2005,549.8177L743.801,549.6508Q744.4088,549.50073,745.0513,549.434Q746.77985,549.283,748.71826,549.6373Q750.1634,549.8566,753.672,550.8299Q751.1128,552.20087,749.62213,552.74023Q749.0274,552.9609,748.4165,553.1296L747.8007,553.2823Q747.1804,553.4205,746.53784,553.4869Q745.8947,553.55145,745.22943,553.5441L744.55945,553.5223Q743.88464,553.48444,743.19354,553.3946Q741.47,553.1827,738.2435,552.4008"/>
</g>
<g style="fill:rgb(0,0,0); fill-opacity:1.0; stroke-linejoin: miter">
<path d="M747.6136,552.0219L747.5261,552.30365Q747.183,553.1369,746.3951,553.4974Q745.60284,553.857,744.7201,553.5429Q743.88794,553.19977,743.52783,552.4115Q743.1692,551.6186,743.4833,550.7351Q743.8263,549.9018,744.6142,549.5414Q745.40643,549.182,746.2893,549.4961Q747.1214,549.8393,747.48157,550.62726Q747.5964,550.88196,747.64374,551.1608L747.67194,551.4429Q747.6823,551.7293,747.6136,552.0219"/>
</g>
<g style="fill:rgb(0,0,0); fill-opacity:1.0; stroke-linejoin: miter">
<path d="M782.2642,538.02814L782.2641,538.02814Q785.2,536.74915,786.8662,536.25543Q787.53156,536.0528,788.20544,535.9008L788.88184,535.7647L789.56305,535.66L790.2502,535.59064Q791.74274,535.47284,793.68384,535.73267Q795.65955,536.00226,798.8244,536.80145L782.2642,538.02814"/>
</g>
<g style="fill:rgb(0,0,0); fill-opacity:1.0; stroke-linejoin: miter">
<path d="M735.15656,538.40247L735.15656,538.40247Q738.59595,536.9311,739.7585,536.6291Q740.83124,536.3056,741.77423,536.1386L742.4557,536.03424L743.14276,535.96466Q743.8059,535.91223,744.55786,535.9345Q744.93384,535.94574,745.33203,535.9756Q746.34674,536.0663,746.5763,536.1068Q747.01526,536.1667,747.513,536.25275Q748.80884,536.49054,749.13837,536.5697Q750.3101,536.8203,751.71704,537.17535L735.15656,538.40247"/>
</g>
<g style="fill:rgb(255,255,255); fill-opacity:1.0; stroke-linejoin: miter">
<path d="M904.9349,676.99896L904.93475,676.9991L904.93475,676.99945L904.93475,676.9991L904.9349,676.99896L904.93475,676.9991L904.93475,676.99945Q904.93475,676.9991,904.9349,676.99896"/>
</g>
<g style="fill:rgb(165,179,188); fill-opacity:1.0; stroke-linejoin: miter">
<path d="M1325.0635,1059.0105L1273.1982,1059.2997L1273.1984,1059.3007C1273.1984,1059.2997,1273.1982,1059.2999,1273.1982,1059.2999L1325.0635,1059.0105 Z"/>
</g>
<g style="fill:rgb(165,179,188); fill-opacity:1.0; stroke-linejoin: miter">
<path d="M1153.1833,989.38055L1153.8694,993.8871L1153.8691,993.888L1153.8584,993.8871L1153.8638,993.8875L1153.8583,993.888L1153.8542,993.8889Q1153.8562,993.8875,1153.8582,993.8871L1153.8584,993.888L1153.8583,993.8871L1153.8693,993.888L1153.1833,989.38055 Z"/>
</g>
<g style="fill:rgb(60,70,79); fill-opacity:1.0; stroke-linejoin: miter">
<path d="M1225.5527,980.2305Q1225.3373,980.23157,1225.1158,980.2349L1225.1157,980.23584Q1216.7495,980.3623,1199.6578,983.7708Q1182.7521,987.1594,1158.9058,992.7069L1158.9113,992.7074L1158.9058,992.7078Q1158.7478,992.74365,1158.5897,992.78046Q1156.256,993.32367,1153.8562,993.8875L1153.8638,993.8885L1153.8638,993.8876L1153.8585,993.888Q1149.0664,995.0129,1144.0151,996.21967Q1138.6942,997.3772,1120.6693,999.94183Q1117.3922,1000.4842,1114.1475,1001.1854Q1107.5573,1002.5591,1102.296,1004.90784Q1094.5565,1008.5052,1092.6409,1014.969Q1090.5353,1018.87024,1092.1486,1034.4392Q1082.1383,1036.2566,1078.1143,1040.927Q1073.5073,1045.8743,1068.295,1058.551L1067.479,1060.4473L1172.6844,1059.8605L1188.015,1059.775L1188.0115,1059.776L1325.0635,1059.0105L1325.0635,1059.0114L1273.1984,1059.2997C1284.2648,1049.2418,1293.843,1037.4838,1301.6177,1024.3722L1301.627,1024.3732L1301.618,1024.3715L1301.6294,1024.3724Q1290.828,1015.91223,1268.4231,1013.80396Q1270.6168,997.322,1264.3353,993.61066Q1259.9634,989.18463,1234.6816,989.1098Q1237.6132,980.33124,1225.5527,980.2305 Z M1217.6216,988.65393L1217.6254,988.65424L1217.6254,988.65515L1217.6218,988.65454L1217.6289,988.65546L1217.6328,988.6548L1217.6328,988.65576L1217.6326,988.6553L1217.633,988.6562L1210.6628,1000.2782L1217.6268,988.6649L1217.6144,988.66583Q1217.6179,988.6594,1217.6216,988.65393 Z M1203.3881,1012.41003L1203.3933,1012.41046L1203.3875,1012.41095L1203.3881,1012.41003 Z M1224.0857,1023.9828L1224.0917,1023.9833L1224.0857,1023.98376L1223.5889,1029.961L1224.0857,1023.9828 Z M1217.1171,1051.8057L1217.123,1051.806L1217.1171,1051.8065L1217.1149,1051.8075C1217.1157,1051.8063,1217.1165,1051.806,1217.1171,1051.8057 Z M1140.4338,1055.168L1140.4408,1055.1686L1140.4341,1055.1691L1140.4341,1055.1699L1140.4338,1055.168 Z M1140.4342,1055.1696L1140.4381,1055.1697L1140.4381,1055.1707L1140.4342,1055.17L1140.4342,1055.1696 Z M1147.4641,1057.2383L1147.4697,1057.2386L1147.4641,1057.2391C1147.4629,1057.2389,1147.4617,1057.2386,1147.4604,1057.2383 Z"/>
</g>
<g style="fill:rgb(220,229,235); fill-opacity:1.0; stroke-linejoin: miter">
<path d="M1140.8907,1057.0898L1140.0593,1053.6229Q1134.2836,1029.3944,1136.7854,1023.28766Q1138.2832,1014.94244,1150.8309,1010.5887Q1155.4556,1009.05853,1160.447,1007.8436Q1191.8945,1009.90466,1199.5067,1011.6218Q1209.5775,1013.61206,1210.8859,1014.28815Q1214.2332,1015.35297,1216.8507,1016.7051Q1219.4683,1018.05695,1221.2357,1019.74426Q1223.4182,1021.8718,1224.2888,1024.517Q1225.9102,1029.8534,1223.7147,1036.6943Q1220.1227,1047.0735,1213.3097,1058.7213L1140.8907,1057.0898"/>
</g>
<g style="fill:rgb(0,0,0); fill-opacity:1.0; stroke-linejoin: miter">
<path d="M1143.355,957.65985L1141.0024,953.7229Q1130.356,936.00037,1127.0436,926.3679Q1122.7573,912.90936,1123.6346,907.3708Q1124.3105,896.01917,1129.3163,886.69495Q1136.2006,874.16705,1144.4419,869.5063Q1151.3895,865.40967,1162.4026,864.5529Q1174.7826,855.77844,1179.1001,854.77826Q1185.3785,852.32715,1192.5076,854.30225Q1200.2559,856.1091,1214.0745,868.3317Q1229.1293,881.78876,1235.6216,892.91797Q1239.2194,898.98755,1240.2164,905.1591L1240.473,908.22736Q1240.5312,911.2914,1239.9264,914.3427Q1237.8103,925.02216,1226.5325,941.64856L1233.4847,951.78906L1143.355,957.65985"/>
</g>
<g style="fill:rgb(255,194,157); fill-opacity:1.0; stroke-linejoin: miter">
<path d="M1160.6686,1028.864L1157.103,1015.13184L1153.1833,989.38055Q1145.484,977.7028,1143.2493,970.5954Q1140.7262,963.7144,1138.9095,947.41516Q1139.8507,921.44476,1142.8833,908.48065Q1145.3206,899.61694,1146.2161,898.4413Q1149.0062,892.58026,1153.0715,888.5852Q1156.7385,884.0069,1171.8827,876.33636Q1196.9978,900.7908,1216.7844,909.6644L1224.3075,929.55743L1229.0177,945.11584L1230.7479,930.731Q1233.8708,935.1493,1234.9559,939.22107Q1236.8612,946.50995,1234.0438,958.6164Q1232.2524,965.80963,1227.6715,965.26196Q1228.4828,973.94525,1222.791,985.60486L1225.1685,1010.95294L1223.5889,1029.961Q1209.6986,1041.2479,1195.1971,1039.8473Q1182.2993,1039.2948,1172.4602,1036.0748Q1164.8507,1033.4188,1160.6686,1028.864"/>
</g>
<g style="fill:rgb(255,0,0); fill-opacity:0.11764706; stroke-linejoin: miter">
<path d="M1175.8528,956.6976L1185.3921,963.20886L1193.0367,953.4454L1184.8883,958.7822L1175.8528,956.6976"/>
</g>
<g style="fill:rgb(255,0,0); fill-opacity:0.08235294; stroke-linejoin: miter">
<path d="M1155.4264,989.88257L1157.1602,991.25757Q1165.6526,998.4672,1173.9937,1001.6232Q1182.4618,1004.67523,1192.855,1003.4281Q1202.9585,1002.0497,1209.0178,997.9946Q1214.6362,994.35376,1220.2014,984.3717L1195.15,1026.1464L1155.4264,989.88257"/>
</g>
<g style="fill:rgb(0,0,0); fill-opacity:1.0; stroke-linejoin: miter">
<path d="M1156.3363,932.9609L1156.787,933.04974Q1158.8138,933.45056,1159.9261,933.6177Q1160.6523,933.74133,1162.0248,933.8743Q1164.1593,934.04047,1165.5581,933.8442Q1166.2845,933.7524,1166.9918,933.5855L1167.695,933.40326Q1168.3937,933.2034,1169.0789,932.9496Q1170.7944,932.32764,1173.7753,930.7867L1156.3363,932.9609"/>
</g>
<g style="fill:rgb(0,0,0); fill-opacity:1.0; stroke-linejoin: miter">
<path d="M1194.4879,928.9351L1194.9387,929.0236Q1197.2241,929.4723,1198.2471,929.61926Q1198.9562,929.72974,1200.1761,929.8484Q1200.4363,929.8781,1201.5177,929.9189Q1201.9376,929.929,1202.3209,929.9212Q1203.0074,929.9162,1203.8711,929.79706Q1204.7974,929.67316,1205.8466,929.37714Q1206.8073,929.09827,1207.6271,928.7738Q1209.2771,928.1303,1211.9269,926.7603L1194.4879,928.9351"/>
</g>
<g style="fill:rgb(0,0,0); fill-opacity:1.0; stroke-linejoin: miter">
<path d="M1155.7731,916.9784L1155.7731,916.9784Q1159.6176,917.41034,1161.6235,917.5118Q1162.429,917.55566,1163.2037,917.5672L1163.9691,917.5686L1164.7153,917.5496L1165.4408,917.5087L1166.1442,917.44385L1166.8265,917.3569L1167.49,917.24976Q1168.1438,917.13257,1168.7675,916.98285Q1170.3337,916.6167,1172.919,915.70856L1155.7731,916.9784"/>
</g>
<g style="fill:rgb(0,0,0); fill-opacity:1.0; stroke-linejoin: miter">
<path d="M1192.0015,911.5714L1192.0015,911.57153Q1193.7103,911.7637,1195.0562,911.89014Q1196.1672,912.0038,1197.8518,912.1051Q1199.1475,912.1741,1200.1974,912.1617L1200.944,912.14294L1201.6693,912.102L1202.3728,912.0371L1203.055,911.9504Q1203.9899,911.8155,1204.996,911.57587Q1207.0297,911.0651,1209.1475,910.302L1192.0015,911.5714"/>
</g>
<g style="fill:rgb(255,0,0); fill-opacity:0.11764706; stroke-linejoin: miter">
<path d="M1171.871,975.222L1172.5756,974.99097Q1178.9844,972.905,1180.7028,972.7245Q1182.9856,972.32635,1186.2322,972.2654Q1188.874,971.84937,1190.2076,971.751Q1192.934,971.5497,1195.839,971.679Q1199.3882,971.81573,1206.636,972.4283Q1196.813,974.3998,1193.9111,974.8424Q1191.2771,975.26404,1189.4456,975.5163Q1187.4608,975.7623,1185.9213,975.88696Q1184.0483,976.02167,1183.6731,976.0219Q1182.9237,976.0503,1182.1735,976.0568Q1180.6732,976.06964,1179.1714,975.99445Q1177.8069,975.92456,1176.2131,975.764Q1173.3457,975.4522,1171.871,975.222"/>
</g>
<g style="fill:rgb(9,86,103); fill-opacity:1.0; stroke-linejoin: miter">
<path d="M373.8454,1221.2975Q354.38193,1221.6699,338.81033,1225.5266L338.81052,1225.5281L338.80753,1225.529Q324.4025,1229.0958,313.32993,1235.6443Q307.75247,1239.0016,303.2341,1242.9622Q300.47186,1244.6561,291.5325,1255.8988Q290.96866,1256.7341,290.41476,1257.575L290.41727,1257.5759Q281.58047,1270.9873,275.27838,1285.8414L297.89484,1285.4728L453.84772,1285.3823C458.44067,1281.4996,462.9102,1277.2693,467.28525,1272.675Q458.57983,1261.4564,448.99054,1251.2959Q445.89264,1248.1047,442.5563,1245.2004L442.55225,1245.2014Q435.0703,1238.6838,426.3837,1233.6115Q420.06543,1229.9922,412.88464,1227.4105Q411.5036,1226.7714,403.75928,1224.6896Q398.25226,1223.1693,390.74872,1222.3207L390.74518,1222.3217Q383.28476,1221.4767,373.8454,1221.2975 Z"/>
</g>
<g style="fill:rgb(0,0,0); fill-opacity:1.0; stroke-linejoin: miter">
<path d="M321.12354,1173.1621L321.12354,1173.1636Q308.96805,1153.7457,306.48297,1144.4128Q304.5084,1138.295,303.96417,1131.7004Q303.7049,1123.4329,304.21347,1121.7529Q305.40155,1111.6423,311.95633,1102.5077L314.35995,1099.5604Q316.63095,1097.0164,319.40515,1094.6898Q325.00098,1089.9958,332.04187,1086.6643Q358.8584,1074.3378,381.29294,1090.6582Q392.50952,1099.0853,398.1246,1112.1335Q399.9079,1116.4076,400.84323,1120.9766Q401.74332,1123.1155,402.03632,1135.2126Q402.28348,1137.5693,400.6178,1150.3198Q399.5457,1157.994,395.10995,1176.5461L321.12354,1173.1621"/>
</g>
<g style="fill:rgb(255,163,138); fill-opacity:1.0; stroke-linejoin: miter">
<path d="M339.74854,1231.8329L339.74854,1231.8344L337.00824,1213.352Q329.5143,1205.9424,326.04477,1200.6106Q322.03656,1194.0669,320.5191,1184.6788Q314.36783,1185.6599,313.3596,1177.6229Q312.37903,1167.6782,317.6687,1168.9497Q313.64917,1148.7644,315.64032,1135.6151Q316.59283,1129.7439,319.15402,1124.3203Q322.72864,1117.7869,323.95,1116.7961Q331.52145,1107.1754,346.444,1105.2234Q363.2359,1103.6616,377.88794,1111.4672Q388.3763,1116.9916,394.11978,1130.5598Q398.8679,1142.0145,398.8811,1160.2262Q398.84308,1171.9734,395.8958,1185.4675Q393.85214,1195.0348,388.8229,1206.6979L391.73145,1230.3362L367.00677,1250.7329L339.74854,1231.8329"/>
</g>
<g style="fill:rgb(255,18,0); fill-opacity:0.08627451; stroke-linejoin: miter">
<path d="M338.10065,1214.5276L339.3088,1215.4358Q346.8334,1221.073,351.26547,1222.6073Q358.3626,1225.0315,365.60168,1223.8003Q368.98282,1223.1322,369.6012,1222.8112Q370.89822,1222.3646,372.14697,1221.7615Q374.6446,1220.5557,376.94928,1218.7246Q378.9234,1217.1354,381.14755,1214.7366Q382.74536,1213.1649,387.0984,1207.473L366.37985,1241.8616L338.10065,1214.5276"/>
</g>
<g style="fill:rgb(255,18,0); fill-opacity:1.0; stroke-linejoin: miter">
<path d="M348.05432,1201.2532L348.85165,1200.8068Q354.14246,1197.7709,356.6269,1197.1543Q357.17303,1197.025,357.64264,1196.992L358.09637,1196.9789Q358.53284,1196.9877,358.9136,1197.0664Q359.8794,1197.2463,361.18878,1198.1107Q363.3538,1196.8135,364.3747,1196.6923Q365.76395,1196.3627,367.81833,1196.724Q369.1995,1196.9774,370.80154,1197.4603Q373.222,1198.2025,375.82883,1199.1385Q371.40204,1202.9642,368.7814,1204.3812Q366.69714,1205.5682,364.44308,1206.0103L363.29953,1206.1589L362.12854,1206.1866L360.93155,1206.1003Q358.50705,1205.7937,355.9316,1204.824Q355.3025,1204.6465,352.02484,1203.1785Q351.37085,1202.892,348.05432,1201.2532"/>
</g>
<g style="fill:rgb(255,18,0); fill-opacity:0.09019608; stroke-linejoin: miter">
<path d="M349.2366,1182.5785L349.2366,1182.5785L360.9417,1186.4581L370.57425,1179.526L360.65134,1183.0579L349.2366,1182.5785"/>
</g>
<g style="fill:rgb(255,255,255); fill-opacity:1.0; stroke-linejoin: miter">
<path d="M370.0119,1153.6799L370.58447,1153.8489Q371.7297,1154.1918,372.8738,1154.4802Q374.018,1154.7687,375.15967,1154.93Q376.88824,1155.1812,378.54376,1154.9523Q379.25064,1154.8468,379.95563,1154.6453L380.66025,1154.4237Q381.36435,1154.1804,382.0672,1153.867Q383.82465,1153.101,386.97754,1151.1832Q382.83087,1150.5416,381.16586,1150.4792Q379.0367,1150.3625,377.52533,1150.5938Q376.81894,1150.6987,376.14963,1150.874L375.48798,1151.064Q374.83456,1151.2693,374.2082,1151.526Q372.63547,1152.155,370.0119,1153.6799"/>
</g>
<g style="fill:rgb(0,0,0); fill-opacity:1.0; stroke-linejoin: miter">
<path d="M374.58713,1151.3975L374.52597,1151.545Q374.09143,1152.5018,374.19315,1153.194Q374.25485,1153.8079,375.16946,1155.0942Q377.57065,1155.2505,378.42462,1155.1846Q379.39822,1155.1333,380.47876,1154.7764Q380.93466,1153.2576,380.86636,1152.5411Q380.85098,1151.8171,380.22763,1150.455Q378.09656,1150.4287,377.03827,1150.6086Q376.0792,1150.7493,374.58713,1151.3975"/>
</g>
<g style="fill:rgb(255,255,255); fill-opacity:1.0; stroke-linejoin: miter">
<path d="M327.4662,1157.4756L328.0387,1157.6447Q329.18393,1157.9875,330.32803,1158.2758Q331.47226,1158.5643,332.61392,1158.7257Q334.34256,1158.9768,335.99802,1158.7479Q336.7048,1158.6423,337.40985,1158.4408L338.1144,1158.2192Q338.81863,1157.9761,339.52148,1157.6624Q341.27893,1156.8965,344.4317,1154.9784Q340.28503,1154.337,338.62,1154.2744Q336.49094,1154.158,334.97943,1154.3892Q334.27316,1154.4941,333.60385,1154.6698L332.94208,1154.8591Q332.2888,1155.0648,331.6624,1155.3214Q330.08963,1155.9503,327.4662,1157.4756"/>
</g>
<g style="fill:rgb(0,0,0); fill-opacity:1.0; stroke-linejoin: miter">
<path d="M332.04135,1155.1929L331.98013,1155.3407Q331.5457,1156.2974,331.64734,1156.9899Q331.70917,1157.6035,332.62372,1158.8901Q335.0249,1159.0463,335.87888,1158.9802Q336.85245,1158.9288,337.93298,1158.5717Q338.38882,1157.053,338.32053,1156.3363Q338.30505,1155.6124,337.68176,1154.2502Q335.55072,1154.2245,334.4925,1154.404Q333.53336,1154.5447,332.04135,1155.1929"/>
</g>
<g style="fill:rgb(0,0,0); fill-opacity:1.0; stroke-linejoin: miter">
<path d="M372.5737,1134.8511L373.27783,1134.5771Q375.39597,1133.7188,377.46198,1133.1841Q378.14868,1133.0176,378.82385,1132.9235L379.49542,1132.8516L380.15976,1132.8246L380.816,1132.8468L381.31232,1132.8993Q381.806,1132.968,382.29083,1133.0912Q383.25992,1133.342,384.20126,1133.7644Q385.92035,1134.5436,388.22452,1136.0168Q385.3987,1135.1685,383.80637,1134.8278Q382.21085,1134.5044,381.8849,1134.4791Q381.2401,1134.3882,380.5881,1134.339Q379.93588,1134.291,379.27643,1134.2849L378.61545,1134.2874Q377.95285,1134.2993,377.28506,1134.3419Q375.61694,1134.44,372.5737,1134.8511"/>
</g>
<g style="fill:rgb(0,0,0); fill-opacity:1.0; stroke-linejoin: miter">
<path d="M364.0716,1150.3429L364.0716,1150.3429L364.0716,1150.3444L364.0716,1150.3429"/>
</g>
<g style="fill:rgb(0,0,0); fill-opacity:1.0; stroke-linejoin: miter">
<path d="M342.4597,1140.1694L341.75143,1139.906Q339.2302,1138.9514,337.39365,1138.5431Q336.51346,1138.3467,335.50845,1138.275L334.8438,1138.2585L334.18793,1138.2909Q333.49564,1138.3503,332.71692,1138.5571Q331.85904,1138.7936,331.0251,1139.1646Q329.44547,1139.8596,326.82837,1141.573Q328.93277,1140.9154,329.5753,1140.7446Q330.52274,1140.4789,331.22806,1140.3165Q332.2131,1140.0983,332.93677,1139.9684Q333.7471,1139.842,334.4385,1139.7792Q335.23557,1139.7135,335.7492,1139.7051Q336.66455,1139.6816,337.7411,1139.7317Q338.4831,1139.7643,339.49762,1139.8541Q340.18185,1139.9055,342.4597,1140.1694"/>
</g>
<g style="fill:rgb(163,193,128); fill-opacity:1.0; stroke-linejoin: miter">
<path d="M403.22314,1260.1909L403.22314,1260.1912L403.22314,1260.1918L403.22314,1260.1909"/>
</g>
<g style="fill:rgb(255,163,138); fill-opacity:1.0; stroke-linejoin: miter">
<path d="M399.67465,1168.8583L399.41217,1170.1641Q398.4917,1174.0878,397.00052,1176.2743Q395.50226,1178.458,394.11905,1177.7509Q392.83405,1176.8772,392.53436,1173.6868Q392.4399,1172.6558,392.47107,1171.4653L392.53568,1170.247Q392.6328,1168.9949,392.8676,1167.6566Q393.62897,1163.5566,395.0707,1160.9996Q396.51236,1158.4424,397.97693,1158.594Q399.40497,1158.9529,399.88397,1161.8492Q400.363,1164.7457,399.67465,1168.8583"/>
</g>
<g style="fill:rgb(93,76,83); fill-opacity:1.0; stroke-linejoin: miter">
<path d="M751.04297,1412.0935Q726.83466,1412.1879,707.14496,1417.9274L707.1449,1417.9282Q696.6153,1420.9967,687.378,1425.6805Q684.91846,1426.9673,682.65,1428.2753C682.6516,1428.2771,682.6532,1428.2789,682.65485,1428.2808L682.6484,1428.2817L682.6479,1428.2811Q671.5041,1434.7029,664.97614,1441.6332Q659.81934,1446.8627,655.75775,1453.7817C660.50214,1459.1995,665.64014,1464.2653,671.1461,1468.9503L865.0359,1467.1211C869.09705,1463.549,872.94257,1459.776,876.5667,1455.8203Q864.28534,1440.0621,848.4164,1431.6675C848.4161,1431.6678,848.41583,1431.6681,848.4155,1431.6683L848.4075,1431.6693Q844.7319,1429.7183,840.8545,1428.166L840.844,1428.167Q839.7657,1427.7302,838.664,1427.3264Q798.5122,1412.4417,751.04297,1412.0935 Z M759.3009,1466.7863C759.304,1466.7864,759.30707,1466.7865,759.3101,1466.7866L759.3029,1466.7876L758.092,1466.8275L759.3009,1466.7863 Z"/>
</g>
<g style="fill:rgb(93,76,83); fill-opacity:1.0; stroke-linejoin: miter">
<path d="M758.0008,1466.7268L758.092,1466.8275L757.99365,1466.7268 Z"/>
</g>
<g style="fill:rgb(93,76,83); fill-opacity:1.0; stroke-linejoin: miter">
<path d="M757.993,1466.7261L758.092,1466.8275L757.98615,1466.7264L757.993,1466.7261 Z"/>
</g>
<g style="fill:rgb(93,76,83); fill-opacity:1.0; stroke-linejoin: miter">
<path d="M757.99335,1466.7264L758.092,1466.8275L757.98615,1466.7264 Z"/>
</g>
<g style="fill:rgb(255,87,155); fill-opacity:1.0; stroke-linejoin: miter">
<path d="M738.48645,1448.094L734.5883,1445.7985Q716.9525,1435.5514,711.2471,1426.2429Q708.8284,1422.6398,707.2556,1418.2897L705.94116,1413.7114Q704.8693,1408.9163,704.89325,1403.1624Q705.3824,1385.3042,712.47345,1363.593Q718.22516,1344.6941,730.6191,1318.3596Q746.5483,1285.52,764.0062,1278.729Q784.11835,1269.6061,812.1406,1284.0648Q834.6774,1298.0896,838.4421,1326.0204Q842.09735,1342.6344,839.4907,1396.346Q842.08276,1410.0413,842.0292,1417.476Q842.24054,1426.4296,838.5377,1434.9272Q832.5196,1447.6196,814.7573,1464.8964L758.092,1466.8275L738.48645,1448.094"/>
</g>
<g style="fill:rgb(255,190,155); fill-opacity:1.0; stroke-linejoin: miter">
<path d="M737.1871,1369.9674L737.12476,1366.406Q736.0652,1334.139,743.9271,1319.4862Q756.6032,1294.6737,775.7879,1287.4451Q794.57916,1281.4508,810.8459,1294.3945Q816.6317,1299.2896,820.70123,1308.5408Q825.1679,1319.0863,825.7963,1333.3578Q825.8545,1345.3904,825.2758,1348.1041Q824.7296,1353.211,823.67,1358.4861Q820.27045,1374.6561,814.0599,1389.3788Q807.8518,1404.0953,801.6887,1412.8284Q793.8074,1423.4445,787.216,1425.4915Q776.55,1429.7706,763.6286,1426.7493Q749.3587,1423.5662,741.1437,1414.7228Q735.3534,1407.3334,735.17505,1398.1556Q734.22516,1392.2527,737.1871,1369.9674"/>
</g>
<g style="fill:rgb(255,0,10); fill-opacity:1.0; stroke-linejoin: miter">
<path d="M758.8105,1384.3739L759.42633,1383.9106Q762.19867,1381.8135,763.68915,1381.146Q765.4865,1380.2572,767.17395,1380.4685Q768.2971,1380.6283,769.3837,1381.1538Q771.01074,1381.9701,772.60693,1383.0951Q776.0293,1382.5756,777.7762,1382.6105Q780.0929,1382.6823,781.23724,1383.2429Q783.7217,1384.2318,786.8728,1388.6711Q781.07745,1391.0707,777.9679,1391.7413Q776.7217,1392.0251,775.5011,1392.1544L774.2885,1392.2346Q773.08325,1392.2717,771.9135,1392.0961Q770.7448,1391.9137,769.6116,1391.5187L768.4855,1391.0798Q767.3676,1390.5927,766.2754,1389.951Q763.5385,1388.3848,758.8105,1384.3739"/>
</g>
<g style="fill:rgb(255,0,10); fill-opacity:1.0; stroke-linejoin: miter">
<path d="M765.1835,1361.951L765.1835,1361.9528L765.1835,1361.951L765.1835,1361.951"/>
</g>
<g style="fill:rgb(255,0,10); fill-opacity:0.09411765; stroke-linejoin: miter">
<path d="M764.05237,1362.2795L775.79596,1370.1438L787.04614,1365.1208L776.8848,1366.4479L764.05237,1362.2795"/>
</g>
<g style="fill:rgb(0,0,0); fill-opacity:1.0; stroke-linejoin: miter">
<path d="M759.2582,1343.4753L759.2582,1343.4766L759.2582,1343.4753L759.2582,1343.4766"/>
</g>
<g style="fill:rgb(255,251,252); fill-opacity:1.0; stroke-linejoin: miter">
<path d="M748.7671,1335.0256L749.43414,1334.6775Q751.43616,1333.5842,753.4298,1332.9279Q754.09393,1332.7251,754.7562,1332.6199L755.4179,1332.5449L756.0785,1332.5304L756.8864,1332.6042Q758.2782,1332.8088,760.0365,1333.8174Q761.80536,1334.8433,764.5718,1337.1309Q761.2826,1338.3915,759.52246,1338.75Q758.81696,1338.9011,758.1271,1338.9727L757.4421,1339.0192Q756.7616,1339.043,756.10266,1338.957Q754.42456,1338.7184,752.7215,1337.7557Q751.1468,1336.8822,748.7671,1335.0256"/>
</g>
<g style="fill:rgb(0,0,0); fill-opacity:1.0; stroke-linejoin: miter">
<path d="M759.78,1336.6486L759.6322,1337.0476Q759.06995,1338.2198,757.87915,1338.6721Q756.6818,1339.122,755.3934,1338.5924Q754.18207,1338.0255,753.6989,1336.8564Q753.54504,1336.4794,753.4929,1336.0725L753.46906,1335.6632Q753.4721,1335.2488,753.59283,1334.8323Q754.0005,1333.5663,755.12195,1332.9753Q756.24347,1332.3843,757.56744,1332.738Q758.8727,1333.1559,759.4968,1334.2594Q760.1212,1335.3629,759.78,1336.6486"/>
</g>
<g style="fill:rgb(255,251,252); fill-opacity:1.0; stroke-linejoin: miter">
<path d="M794.39136,1340.6981L795.05853,1340.3499Q797.0605,1339.2565,799.054,1338.6001Q799.71814,1338.3976,800.38055,1338.2924L801.0423,1338.2169L801.70264,1338.2024L802.51074,1338.2765Q803.9026,1338.4811,805.6608,1339.4899Q807.4297,1340.5155,810.19617,1342.8031Q806.9068,1344.064,805.1468,1344.4222Q804.44116,1344.5735,803.75134,1344.6448L803.0664,1344.6913Q802.38586,1344.7152,801.7269,1344.6293Q800.0487,1344.3909,798.3458,1343.4282Q796.771,1342.5541,794.39136,1340.6981"/>
</g>
<g style="fill:rgb(0,0,0); fill-opacity:1.0; stroke-linejoin: miter">
<path d="M805.4042,1342.3207L805.25635,1342.7197Q804.6943,1343.8918,803.5035,1344.3444Q802.3061,1344.7942,801.0177,1344.2646Q799.80634,1343.6974,799.32324,1342.5286Q799.1692,1342.1515,799.11725,1341.7448L799.0933,1341.3354Q799.0963,1340.921,799.21716,1340.5048Q799.6247,1339.2388,800.74634,1338.6475Q801.86786,1338.0565,803.19183,1338.4103Q804.4969,1338.8284,805.12115,1339.9316Q805.74554,1341.0352,805.4042,1342.3207"/>
</g>
<g style="fill:rgb(0,0,0); fill-opacity:1.0; stroke-linejoin: miter">
<path d="M830.0263,1339.0408L830.0263,1339.0425C828.22504,1346.8986,826.3321,1355.4546,817.5702,1358.7657L817.5702,1358.7676C812.24,1360.7799,804.4726,1360.8054,797.82886,1359.1704L797.82886,1359.1718C793.77014,1358.1714,790.0152,1356.5258,787.45074,1354.2246L787.45074,1354.2263C780.56903,1348.0508,782.7361,1337.8094,786.9805,1332.5469L786.9805,1332.5487C791.415,1327.0492,798.1694,1326.6326,805.5409,1328.3661L805.5409,1328.3676C805.69385,1328.4022,805.8439,1328.4382,805.9976,1328.4761L805.9976,1328.4777C813.26117,1330.2638,821.44446,1334.1469,829.5062,1337.9681C829.9097,1338.1594,830.12604,1338.6055,830.0263,1339.0408L830.0263,1339.0425 M828.1708,1338.6154L828.69086,1339.6884C820.5746,1335.8412,812.5804,1332.0564,805.54254,1330.3245L805.54254,1330.326C805.3944,1330.2882,805.2523,1330.2537,805.10504,1330.2189L805.10516,1330.2206C797.95715,1328.538,792.1892,1329.1211,788.46216,1333.7422L788.46216,1333.7438C784.54535,1338.5985,782.91187,1347.5953,788.722,1352.8077L788.722,1352.8093C790.9666,1354.8217,794.389,1356.3635,798.28375,1357.3217L798.28375,1357.3235C804.676,1358.8953,812.02985,1358.8243,816.89734,1356.9852L816.89734,1356.9867C824.5549,1354.0914,826.3169,1346.7026,828.1708,1338.6154 Z"/>
</g>
<g style="fill:rgb(0,0,0); fill-opacity:1.0; stroke-linejoin: miter">
<path d="M732.3619,1325.5175L732.3619,1325.5192C732.16077,1333.5768,731.87537,1342.3351,739.54425,1347.7131L739.54425,1347.7146C744.2095,1350.9847,751.72833,1352.9335,758.57025,1352.9946L758.57025,1352.9962C762.7499,1353.0322,766.79535,1352.3679,769.8499,1350.7737L769.8499,1350.7753C778.0462,1346.4966,778.48346,1336.0376,775.6747,1329.8878L775.6747,1329.8894C772.7402,1323.4628,766.29944,1321.3866,758.72833,1321.2402L758.72833,1321.2416C758.5711,1321.2373,758.4168,1321.2349,758.25867,1321.2334L758.25867,1321.2349C750.77856,1321.1661,741.88837,1322.9019,733.1313,1324.6068C732.69305,1324.6926,732.37286,1325.0709,732.3619,1325.5175L732.3619,1325.5192 M734.2648,1325.5648L733.4953,1326.4752C742.31146,1324.7585,750.99414,1323.0718,758.2414,1323.1371L758.2414,1323.1383C758.394,1323.1383,758.54034,1323.1403,758.6916,1323.1434L758.6916,1323.1449C766.033,1323.2853,771.47687,1325.2788,773.9432,1330.6787L773.9432,1330.6803C776.5353,1336.354,775.8894,1345.475,768.96936,1349.086L768.96936,1349.0876C766.29584,1350.4812,762.598,1351.1271,758.58734,1351.0911L758.58734,1351.0928C752.0046,1351.032,744.8974,1349.1422,740.6371,1346.1544L740.6371,1346.1561C733.9349,1341.4543,734.0578,1333.8595,734.2648,1325.5648 Z"/>
</g>
<g style="fill:rgb(0,0,0); fill-opacity:1.0; stroke-linejoin: miter">
<path d="M772.8969,1331.7091L772.8969,1331.7108C775.75433,1331.1254,778.8783,1330.4706,781.6728,1331.0709L781.6728,1331.0721C781.9346,1331.127,782.19183,1331.1938,782.44495,1331.2698L782.44495,1331.2714C784.9121,1332.0116,787.05786,1333.6726,789.0322,1335.1879C789.4493,1335.5079,789.52795,1336.1052,789.2078,1336.5223C788.8877,1336.9393,788.2903,1337.0181,787.87317,1336.698L787.87317,1336.6992C785.83527,1335.1335,783.9686,1333.7156,781.8971,1333.0928L781.8971,1333.0944C781.6905,1333.0308,781.48254,1332.9768,781.27295,1332.9316L781.27295,1332.9335C778.94574,1332.4321,776.2453,1332.9679,773.2781,1333.5741C772.7631,1333.6796,772.26025,1333.3473,772.15497,1332.8323C772.04987,1332.3173,772.3819,1331.8145,772.8969,1331.7091 Z"/>
</g>
<g style="fill:rgb(0,0,0); fill-opacity:1.0; stroke-linejoin: miter">
<path d="M749.5833,985.1192L721.0806,970.5033Q700.69006,944.6251,697.4925,928.6246Q695.64825,915.7287,703.06256,899.6529Q698.22687,871.13025,698.222,857.39417Q698.7403,838.57666,702.20886,833.06604Q710.9909,813.426,740.60614,808.716Q766.77094,806.0066,795.13635,820.53503Q809.14655,826.4337,817.7956,841.4297Q818.7518,842.7192,822.7067,852.2927Q834.0078,884.843,837.6068,891.7236Q837.371,892.6006,855.1909,923.37897Q859.8807,932.8917,860.31494,934.874Q864.2945,946.5693,863.8763,959.341Q863.78534,969.9215,860.5978,989.7081L749.5833,985.1192"/>
</g>
<g style="fill:rgb(0,0,0); fill-opacity:1.0; stroke-linejoin: miter">
<path d="M829.57983,971.6142Q813.6325,971.632,801.5558,972.74414Q788.5635,973.51575,746.8855,979.3083Q742.45337,979.32935,738.3985,979.3873L738.39886,979.3875L738.39185,979.3884Q709.6246,979.7992,699.8501,982.0677C699.8511,982.0684,699.85205,982.0692,699.85297,982.07L699.8464,982.0709Q699.4822,982.15314,699.1499,982.2388Q679.07214,985.5015,670.2266,1005.3383Q670.1249,1005.5665,670.0246,1005.797L670.78406,1005.80414L670.784,1005.8051C670.784,1005.80414,670.78406,1005.8042,670.78406,1005.8042L861.19635,1007.5987C870.7929,999.81824,878.4842,991.9956,885.3502,982.65216Q880.33264,980.48737,875.58673,978.85144Q869.4206,976.66327,862.6866,975.1365L862.67834,975.1374Q854.5643,973.2948,845.6158,972.4154L845.6077,972.4163Q837.9045,971.65753,829.57983,971.6142 Z M798.4883,987.1408Q798.4883,987.14105,798.4882,987.1414L798.48065,987.14233Q798.48065,987.14105,798.4807,987.1408 Z M826.3796,988.2937C826.3793,988.2939,826.3789,988.2941,826.37854,988.29425L826.3707,988.2952C826.37103,988.2941,826.3714,988.2939,826.37177,988.2937 Z"/>
</g>
<g style="fill:rgb(255,192,156); fill-opacity:1.0; stroke-linejoin: miter">
<path d="M751.3668,989.44006L744.7986,964.3997Q728.2826,960.77216,723.5307,951.43115Q720.12573,943.3495,721.518,925.94806Q717.0898,915.19116,715.90594,907.8086Q715.38947,905.3435,715.57086,899.6391Q715.606,896.3775,717.41296,886.64966Q717.16693,866.2817,719.14984,855.5117Q721.41864,843.20544,728.3653,835.6925Q732.51556,830.80054,741.7115,823.7626Q761.5948,852.82,773.15265,862.82196Q784.42175,873.6318,810.19214,886.1987Q812.09924,912.91766,810.40625,926.4624Q809.1294,935.2484,805.9741,940.9472Q803.4551,945.87714,797.6304,952.6305L799.384,979.3342Q798.92596,988.0385,797.2909,990.24664Q794.84875,998.023,767.927,1000.2911L751.3668,989.44006"/>
</g>
<g style="fill:rgb(255,0,3); fill-opacity:1.0; stroke-linejoin: miter">
<path d="M769.52795,926.0421L768.3686,926.4757L758.59985,930.1689Q756.1295,931.01605,753.841,931.23126Q752.64984,931.33514,751.62756,931.2659Q750.5584,931.1896,749.8792,931.0751Q747.3494,930.6446,743.1563,929.5312Q742.06134,929.3244,741.0078,929.2078Q739.2288,929.0511,736.5969,929.57733Q739.31256,925.8784,740.92505,924.3815Q742.491,922.88824,744.23035,922.2942Q745.3486,921.88434,747.3338,921.96515Q749.45544,922.15027,751.9769,922.8088Q754.60736,921.473,756.2527,921.0095Q758.01025,920.48065,759.85205,920.70667Q761.82367,921.05365,763.67426,922.10126Q765.03564,922.68,769.52795,926.0421"/>
</g>
<g style="fill:rgb(255,8,0); fill-opacity:0.078431375; stroke-linejoin: miter">
<path d="M740.90295,900.8354L749.5701,908.627L756.5481,898.48334L749.4232,902.3791L740.90295,900.8354"/>
</g>
<g style="fill:rgb(255,8,0); fill-opacity:0.07450981; stroke-linejoin: miter">
<path d="M745.4215,965.094L746.57153,965.3201Q750.8541,966.331,758.0919,966.8916Q761.7022,967.10736,765.4466,966.4563Q773.58246,965.0466,787.2411,959.0018L751.27905,988.582L745.4215,965.094"/>
</g>
<g style="fill:rgb(255,8,0); fill-opacity:1.0; stroke-linejoin: miter">
<path d="M793.933,881.5518L793.9326,881.5522L793.9326,881.5522L793.933,881.5518"/>
</g>
<g style="fill:rgb(255,255,255); fill-opacity:1.0; stroke-linejoin: miter">
<path d="M728.38873,880.3464L728.8168,880.03754Q730.0982,879.08624,731.4052,878.3532Q731.8418,878.1168,732.28394,877.9292L732.72797,877.7563Q733.07416,877.61523,733.826,877.46783Q734.7204,877.30023,736.05865,877.4505Q737.11566,877.563,739.2717,878.14606Q737.4617,879.205,736.40845,879.6601Q735.34875,880.0963,735.1221,880.143Q734.6843,880.2782,734.23096,880.3704Q733.7773,880.4615,733.3085,880.5098L732.8362,880.5488Q732.3606,880.5784,731.8739,880.5768Q730.6597,880.58026,728.38873,880.3464"/>
</g>
<g style="fill:rgb(0,0,0); fill-opacity:1.0; stroke-linejoin: miter">
<path d="M735.4598,879.1505L735.4259,879.3357Q735.26227,879.8881,734.71027,880.17365Q734.1546,880.45886,733.4547,880.3233Q732.7894,880.1661,732.429,879.6927Q732.31354,879.5395,732.24634,879.3661L732.193,879.18933Q732.1526,879.00867,732.1712,878.8178Q732.24786,878.23584,732.7509,877.8947Q733.2542,877.554,733.9544,877.6101Q734.65173,877.69525,735.07654,878.13007Q735.5012,878.56464,735.4598,879.1505"/>
</g>
<g style="fill:rgb(255,255,255); fill-opacity:1.0; stroke-linejoin: miter">
<path d="M769.4008,875.0354L769.84656,874.75305Q771.1819,873.87897,772.5299,873.22394Q772.97986,873.0142,773.43225,872.85284L773.8854,872.7062Q774.2396,872.5861,774.99854,872.4831Q775.9016,872.36896,777.2285,872.598Q778.27716,872.77295,780.3948,873.4821Q778.5256,874.4328,777.4472,874.8243Q776.36365,875.19763,776.1348,875.2307Q775.68976,875.3396,775.23145,875.405Q774.77344,875.4692,774.3025,875.4893L773.8288,875.5007Q773.3522,875.502,772.86646,875.4716Q771.6541,875.4034,769.4008,875.0354"/>
</g>
<g style="fill:rgb(0,0,0); fill-opacity:1.0; stroke-linejoin: miter">
<path d="M776.53015,874.25964L776.4856,874.4423Q776.28937,874.98456,775.7217,875.2369Q775.15027,875.4888,774.4595,875.31226Q773.8047,875.1158,773.4728,874.6218Q773.3666,874.4624,773.3099,874.28503L773.2669,874.10535Q773.23737,873.9224,773.267,873.73364Q773.378,873.157,773.90063,872.8466Q774.4229,872.5357,775.11884,872.63275Q775.8097,872.7591,776.2078,873.2183Q776.60645,873.6773,776.53015,874.25964"/>
</g>
<g style="fill:rgb(0,0,0); fill-opacity:1.0; stroke-linejoin: miter">
<path d="M722.3812,860.7806L723.2307,860.47876Q725.789,859.5444,728.26117,858.87256Q729.0824,858.6589,729.88403,858.50275L730.68,858.3659Q731.3276,858.251,732.522,858.1934Q734.1442,858.1395,736.0021,858.5019Q737.981,858.90015,740.719,859.8445L722.3812,860.7806"/>
</g>
<g style="fill:rgb(0,0,0); fill-opacity:1.0; stroke-linejoin: miter">
<path d="M755.3185,861.2373L756.1758,860.9592Q759.13837,859.9743,761.6149,859.4093Q762.6802,859.1743,763.8318,859.0306Q764.4635,858.9514,765.5261,858.9295Q766.43744,858.9422,766.63306,858.9699Q767.0104,858.99915,767.399,859.0494Q768.17554,859.14935,768.9966,859.3331Q769.61084,859.4524,771.41187,860.01086Q772.4697,860.3519,773.6749,860.80493L755.3185,861.2373"/>
</g>
<g style="fill:rgb(0,0,0); fill-opacity:1.0; stroke-linejoin: miter">
<path d="M837.24164,982.32336L837.24164,982.3237L837.2415,982.3242L837.24164,982.32336"/>
</g>
<g style="fill:rgb(56,119,161); fill-opacity:1.0; stroke-linejoin: miter">
<path d="M766.406,432.35876C777.2743,432.35876,788.2079,433.14282,794.2192,434.7109C853.46063,450.04385,889.8767,511.37634,874.7179,569.7467C866.70264,600.0647,844.4,627.76855,817.0444,641.1853C800.7533,649.2016,783.6467,653.1163,766.81915,653.1163C738.29254,653.1163,710.5679,641.8661,688.97797,620.2763C651.86505,583.16315,645.5922,527.4063,673.47064,483.14948C687.2358,461.36978,713.8944,441.68054,738.9851,434.7109C744.7349,433.14282,755.5378,432.35876,766.406,432.35876 Z M632.5934,611.73096C635.30206,611.73096,638.07275,614.5852,642.9787,622.36707C646.81195,628.4655,654.65283,638.57135,660.5769,644.84393L671.0315,656.1699L661.7967,670.9801C656.5695,678.99493,648.7288,691.5403,644.0244,698.684C639.4939,705.82806,627.12305,724.99445,616.4943,741.3731C605.86584,757.5775,595.5855,773.60754,593.8432,776.5696C591.92645,779.706,589.3129,782.3198,587.7448,782.3198C586.3509,782.3198,566.139,772.73627,542.79095,761.06195C505.50354,742.4183,500.45065,739.45605,501.14774,736.3198C507.4203,708.0929,507.94284,703.737,507.2459,684.7451C506.72327,673.7678,505.8521,663.4878,505.15515,661.9198C503.587,658.4348,509.33685,655.4728,541.5713,644.1471C564.0481,636.1321,591.92645,625.85205,610.39575,618.8823C620.5017,615.0489,630.4336,611.91266,632.3501,611.7386C632.4312,611.7335,632.51227,611.73096,632.5934,611.73096 Z M358.0966,580.20123C369.0737,580.20123,380.5735,581.24646,385.97495,582.6404C404.96704,587.6931,421.51978,596.5794,434.5878,608.428C481.4584,651.4651,483.02664,723.4261,437.8985,768.3798C416.631,789.7814,388.17575,801.42773,359.62717,801.42773C350.98694,801.42773,342.33813,800.3609,333.87744,798.1749C304.43085,790.5083,283.34787,775.17535,266.44662,749.2136C254.24982,730.57007,249.71959,714.36566,249.71959,689.27484C249.71959,660.3511,259.12845,636.1318,278.64322,615.22296C290.84,601.981,307.39276,591.3522,325.1653,585.2537C337.18777,581.07227,342.415,580.3753,358.0966,580.20123 Z M483.8979,773.60724C484.9433,773.60724,503.93536,782.8419,525.8897,794.1679C554.8134,808.8035,565.9648,815.4246,565.79047,817.5158C565.6162,819.0837,561.2603,826.9247,556.033,834.9397C550.80597,842.7804,541.2226,857.5907,534.6015,867.69666C516.0312,896.5837,511.90457,902.8823,509.53253,902.8823C508.9,902.8823,508.3922,902.4344,507.76862,901.8475C506.2005,900.45337,503.41266,896.27185,501.4961,892.61255C498.53403,886.863,473.96613,845.5682,469.26166,838.07605C468.21622,836.6819,466.99646,834.24274,466.29953,832.8488C465.60257,831.45447,462.11777,825.35645,458.28455,819.258L451.48914,808.281L463.5119,795.7359C470.13278,788.7662,477.1025,781.09955,478.67056,778.312C480.413,775.698,482.6782,773.60724,483.8979,773.60724 Z M857.8164,660.35126C858.339,660.35126,903.2933,704.957,957.83026,759.494L1056.9728,858.6367L1049.3062,871.35626C1044.9503,878.49976,1040.0717,887.7347,1038.329,892.09033C1031.9785,908.03394,1030.8668,911.08984,1027.8441,911.08984C1026.969,911.08984,1025.9333,910.8336,1024.564,910.5598C1021.4277,910.0372,1013.0639,908.8175,1005.9203,907.77203C998.7765,906.901,984.3146,904.9845,973.68604,903.4162C963.23175,902.0218,947.55023,899.9311,939.0126,898.88556C915.8385,896.09784,916.0127,896.2723,914.793,882.1588C910.26263,831.2808,880.11926,785.9781,834.9909,762.63043C813.7855,751.57837,790.81934,746.0404,767.62164,746.0404C745.8354,746.0404,723.84503,750.925,702.91736,760.71405C685.14484,769.0772,665.8042,784.58453,650.81946,802.7055C647.50916,806.8872,643.85,810.19763,642.6304,810.19763C639.494,810.19763,624.3351,801.48584,624.3351,799.5693C624.3351,798.69775,628.86536,790.857,634.44104,782.1452C639.84247,773.4331,645.5924,764.547,646.98627,762.1074C648.3802,759.84247,656.5695,747.12317,665.1071,734.05493C673.81903,720.813,685.14484,703.3889,690.3719,695.1995C699.4087,681.2968,702.56616,677.045,705.59753,677.04504C706.3653,677.04504,707.125,677.3178,707.97015,677.77563C720.5156,684.5709,747.1741,689.97217,767.2118,689.97217C796.6584,689.97217,821.92303,682.48004,848.2333,665.9271C853.11206,662.96497,857.2939,660.35126,857.8164,660.35126 Z M766.42053,782.70984C771.6747,782.70984,777.00244,783.1736,782.7191,784.0616C807.8097,788.2435,829.7638,799.56915,846.8393,817.3415C859.0361,830.2352,866.87695,843.3032,872.8012,860.72754C877.15717,873.44666,877.8542,878.1512,877.67975,893.8325C877.5052,920.84,871.92975,937.9158,855.7254,960.39233C851.021,966.8392,843.87726,974.67975,839.8696,977.8164C835.86206,980.95264,831.6802,984.4375,830.4606,985.48254C825.93024,989.8387,802.2337,999.94464,790.3854,1002.5582C782.6209,1004.3024,774.8564,1005.1745,767.1095,1005.1745C750.86584,1005.1745,734.6996,1001.3404,718.7729,993.6724C711.8034,990.18713,705.1821,986.7026,703.9624,985.48267C702.74286,984.4374,698.56104,980.9527,694.55365,977.8163C680.7885,967.0133,666.6751,944.5367,659.88007,922.5824C655.17566,906.90076,655.52405,879.19653,660.751,863.34076C672.25104,827.97,698.387,800.26636,730.6216,789.4632C744.27625,784.83234,755.18,782.70984,766.42053,782.70984 Z M1169.945,838.1986C1177.3132,838.1986,1187.5461,839.16943,1194.7968,840.6899C1220.7584,846.091,1238.531,856.1967,1255.9551,875.015C1275.4698,896.0982,1285.053,920.66626,1284.8784,949.58984C1284.8783,978.6878,1275.4694,1003.0813,1255.9545,1024.1642C1233.4688,1048.4418,1203.8895,1060.6516,1174.3215,1060.6516C1146.381,1060.6516,1118.4506,1049.7489,1096.5249,1027.8231C1052.6163,983.7408,1052.6165,915.43835,1096.6996,871.1819C1111.51,856.3716,1130.8506,845.743,1149.6685,841.56116C1155.4186,840.3417,1160.9939,839.12177,1161.8652,838.9473C1163.4124,838.43164,1166.3347,838.1986,1169.945,838.1986 Z M602.7293,832.84894C603.25214,832.84894,608.1308,835.11414,613.8806,838.0763C619.4564,840.86365,624.50934,844.0001,625.20624,845.04584C625.7291,845.9171,624.68365,854.28,622.76697,863.34076C610.57,919.0973,632.1757,977.4676,677.47784,1011.0957C697.8642,1026.2546,711.629,1032.7019,734.9774,1038.2773L747.17413,1041.2395L747.17413,1125.5714L747.1739,1209.9033L734.9773,1212.8651C728.3561,1214.4337,719.29553,1217.047,714.9398,1218.7896C709.0691,1220.999,705.4396,1222.4766,702.6014,1222.4766C697.6055,1222.4766,695.0614,1217.8986,687.0613,1204.6758C680.7885,1194.3959,675.3872,1185.1611,675.0386,1184.1157C674.69025,1183.0702,668.24335,1172.4414,660.9253,1160.4192C653.60736,1148.3966,647.16046,1137.4197,646.46344,1136.0255C645.7667,1134.6318,644.5469,1132.1925,643.5013,1130.7986C640.01666,1125.3967,619.45636,1091.2461,615.27466,1083.754C612.8352,1079.3981,593.3203,1046.6407,572.0631,1010.74725C550.6316,974.854,532.8592,944.01355,532.5107,942.44543C531.9879,940.7031,534.77576,934.95306,538.6089,929.20306C545.4043,919.44574,563.6997,891.2195,585.3054,857.5907C596.45667,839.99286,601.5096,832.84894,602.7293,832.84894 Z M914.1744,932.5528C914.8341,932.5528,915.60034,932.67554,916.5351,932.8624C919.3231,933.5595,927.33813,934.7794,934.4818,935.6502C941.62585,936.5215,956.6103,938.43805,967.58734,940.00586C978.56433,941.57416,995.8141,943.83936,1005.7457,945.2333C1016.8971,946.6276,1024.3895,948.36993,1025.2607,949.76385C1026.132,951.15753,1026.8289,955.5139,1026.8289,959.52094C1026.8289,970.6726,1032.9272,995.4144,1039.1998,1009.70233C1042.6846,1017.5431,1054.8816,1037.4064,1056.624,1038.1035C1060.8057,1039.6714,1056.624,1045.944,1041.4651,1061.9741C1016.20013,1088.2843,998.07916,1107.2764,959.74664,1147.3513C940.5802,1167.389,915.83813,1193.3506,904.6867,1204.8502C893.70953,1216.3502,880.81586,1229.941,876.1113,1234.8196C870.5787,1241.0298,866.8751,1243.8741,863.91034,1243.8741C862.3002,1243.8741,860.9079,1243.0352,859.55884,1241.4407C856.7708,1238.13,834.8165,1224.8881,825.58203,1221.0548C817.5671,1217.57,804.49896,1213.5621,794.2188,1211.4717L787.2491,1209.9033L787.24927,1125.5714L787.24927,1041.0651L794.21893,1039.4971C818.78674,1034.2698,836.9074,1026.2549,855.3768,1012.1416C880.119,993.498,892.83856,976.24835,908.1717,940.35474C910.77185,934.1968,911.75977,932.5528,914.1744,932.5528 Z M360.337,1061.2894C369.69543,1061.2894,378.98145,1062.1626,385.97513,1063.8904C410.71716,1070.163,434.9366,1086.5415,449.92117,1107.1013C456.01953,1115.8136,457.41354,1118.2528,462.98917,1130.7981C474.14032,1156.2369,473.09503,1192.6531,460.37564,1219.1377C446.61053,1247.8872,417.51248,1271.583,386.32364,1279.5984C379.4411,1281.3406,369.9015,1282.2117,360.36188,1282.2117C350.82227,1282.2117,341.28268,1281.3406,334.40027,1279.5984C297.4615,1270.3636,267.49237,1243.008,254.42435,1206.7662C251.11375,1197.706,250.59106,1192.4786,250.59106,1171.7443C250.5911,1151.0099,251.11378,1145.7825,254.42433,1136.7223C267.318,1101.1774,295.54474,1074.8673,331.78662,1064.5872C339.32742,1062.3801,349.8774,1061.2894,360.337,1061.2894 Z M509.76218,979.4456C510.85703,979.4456,511.64352,980.40784,512.2988,982.17206C512.9957,983.9139,518.223,993.1492,524.1471,1002.7318C530.07117,1012.31537,535.29846,1021.3761,535.9954,1022.7698C537.3893,1025.7319,539.82886,1029.9137,554.6392,1054.133C560.2151,1063.1936,587.222,1108.6703,614.75195,1155.1918C642.28174,1201.714,665.4555,1240.3949,666.3268,1241.2661C668.76605,1244.054,668.41754,1245.0994,660.75085,1253.9856C656.74347,1258.5156,652.0391,1264.0913,650.29645,1266.3561C648.38,1268.6217,644.3726,1274.3713,641.4105,1279.0759C638.27496,1284.3569,635.45215,1287.2928,633.53406,1287.2928C633.4269,1287.2928,633.32263,1287.2836,633.22125,1287.2653C628.3426,1286.3942,500.6248,1221.4025,500.6248,1219.8346C500.6248,1218.9634,502.19305,1212.1683,504.1096,1204.6757C509.85953,1181.5017,508.29147,1146.8282,500.4506,1124.6997C492.60974,1103.2684,479.54178,1082.1849,465.08002,1068.0719C460.7239,1063.8901,457.065,1059.3599,457.065,1057.9661C457.065,1056.7463,462.29196,1047.5117,468.91302,1037.406C475.36008,1027.4741,486.3371,1010.22455,493.48102,999.2471C502.52097,985.25385,507.07227,979.4456,509.76218,979.4456 Z M767.08875,1245.9347C775.8273,1245.9347,784.5867,1247.0321,793.17346,1249.281C840.7406,1261.4778,872.975,1299.2882,878.202,1348.4235C879.42175,1360.272,876.4597,1379.7866,871.40674,1394.423C860.0811,1427.1792,829.06635,1455.4061,794.21844,1464.4667C787.94586,1466.1218,777.5786,1466.9495,767.2113,1466.9495C756.84406,1466.9495,746.47687,1466.1218,740.2043,1464.4667C714.2423,1457.6714,687.5837,1438.5044,673.47015,1416.0277C645.5921,1371.7715,651.8647,1316.0148,688.97784,1279.0759C710.314,1257.6067,738.59,1245.9347,767.08875,1245.9347 Z M759.56714,394.36252C756.0405,394.36252,753.1958,394.50027,751.53046,394.8102C721.90967,400.03717,705.53107,406.1356,686.1903,419.02942C650.4711,442.90005,628.517,476.7026,620.8504,520.26276C618.9338,531.2401,619.108,547.9669,621.19885,569.7467C621.54736,573.05743,620.5019,574.6259,615.6231,576.89087C605.5172,581.7694,577.63885,592.3978,574.851,592.3978C574.154,592.3978,571.01764,593.44336,568.0556,594.8373C564.91925,596.0568,553.94214,600.41315,543.31354,604.2462C532.8592,608.0794,517.526,613.65497,509.68515,616.61707C501.67007,619.57916,494.52643,622.0188,493.6551,622.0188C492.784,622.0188,487.90533,615.9201,482.67816,608.4281C458.2844,574.1029,429.70917,554.7619,389.11136,545.1789C382.83865,543.6108,372.03577,542.8266,361.0151,542.8266C349.99445,542.8266,338.756,543.6107,331.61218,545.1789C261.74203,559.64075,212.78073,619.0562,212.43234,689.9718C212.25797,711.05524,214.00038,721.33514,221.31854,741.3728C243.26195,801.26807,299.20105,838.0993,359.95816,838.0993C375.90863,838.0993,392.19116,835.56085,408.27786,830.235C412.30365,828.8933,414.74753,828.2369,416.47977,828.2369C417.89636,828.2369,418.837,828.67584,419.77768,829.53815C422.04272,831.4547,477.6251,922.75604,479.54172,927.80927C479.89014,928.68005,481.1099,930.7715,482.32965,932.1649C487.731,938.61206,486.5113,942.0967,471.87515,964.748C427.79254,1032.7017,424.8305,1036.7089,421.34573,1036.7089C419.25488,1036.7089,416.98965,1036.0118,415.9443,1035.315C414.3762,1033.9214,402.35364,1030.088,388.06604,1026.429C383.36285,1025.1865,370.97647,1024.5769,358.73294,1024.5769C346.9365,1024.5769,335.27264,1025.1428,330.74112,1026.2543C282.4767,1038.6257,247.97746,1065.1099,227.93987,1105.5333C216.61433,1128.1843,212.43263,1146.1309,212.43268,1171.7439C212.43268,1197.3577,216.61444,1215.3042,227.9399,1237.9548C247.97745,1278.2039,284.9162,1306.7797,329.87003,1316.7107C337.82938,1318.4445,348.17676,1319.2872,358.7521,1319.2872C371.5588,1319.2872,384.69983,1318.0513,394.33868,1315.6654C423.7851,1308.3481,447.8302,1293.8861,469.6102,1270.1896C476.7539,1262.5226,483.72357,1256.2502,485.11746,1256.2502C486.51138,1256.2502,517.70026,1271.4093,554.63916,1289.8788C621.0244,1323.1587,621.7214,1323.6812,621.37274,1328.7341C618.2365,1367.764,618.9335,1378.3928,626.25134,1401.2177C642.4557,1452.0952,683.4021,1489.2085,737.59064,1502.1022C743.7761,1503.5834,755.49365,1504.324,767.2113,1504.324C778.92896,1504.324,790.64667,1503.5834,796.8323,1502.1022C866.8762,1485.5496,915.3151,1425.9601,915.31525,1356.439C915.31525,1332.2195,907.30054,1302.7732,895.8005,1283.7808C892.4899,1278.3793,891.27014,1274.7202,892.1413,1272.9779C893.70953,1270.1901,908.34576,1254.3342,932.56506,1229.2439C981.00385,1178.8889,1014.80634,1143.5182,1071.2598,1084.1027C1078.7523,1076.2618,1085.3734,1069.8147,1086.0706,1069.8147C1086.7675,1069.8147,1092.8657,1072.9513,1099.3127,1076.7844C1122.9193,1090.5371,1148.6793,1097.5598,1174.5854,1097.5598C1190.3636,1097.5598,1206.1962,1094.9547,1221.629,1089.6785C1270.5908,1073.1259,1307.3553,1031.8309,1319.7266,979.2104C1322.6887,966.8395,1322.6887,932.34033,1319.7267,919.96893C1308.9237,874.31805,1278.0836,834.7656,1239.2279,816.6444C1217.6514,806.528,1195.8956,801.50244,1174.3181,801.50244C1148.3263,801.50244,1122.5934,808.79474,1097.7448,823.2657C1089.6737,828.05383,1085.5764,829.9418,1083.0078,829.9418C1082.3047,829.9418,1081.7161,829.80035,1081.192,829.53827C1077.3585,827.2734,885.6949,635.43524,885.6949,633.6928C885.6949,632.99585,889.1796,626.37476,893.53564,618.8824C916.5355,579.50415,921.414,536.4671,907.30084,495.1721C891.09656,447.2563,850.49866,410.31723,800.31757,397.94632C792.59357,396.0489,771.9065,394.36252,759.56714,394.36252 Z"/>
</g>
</g>
</svg>